HIERARCHY
ROOT root
{
	OFFSET	0	13.1	24.9
	CHANNELS 6  Xposition Yposition Zposition Xrotation Yrotation Zrotation
	JOINT spine_1
	{
		OFFSET	0	9.99999	0
		CHANNELS 3  Xrotation Yrotation Zrotation
		JOINT spine_2
		{
			OFFSET	0	112	-10
			CHANNELS 3  Xrotation Yrotation Zrotation
			JOINT spine_3
			{
				OFFSET	0	206.5	19.3
				CHANNELS 3  Xrotation Yrotation Zrotation
				JOINT spine_4
				{
					OFFSET	0	110.4	14.6
					CHANNELS 3  Xrotation Yrotation Zrotation
					JOINT neck_1
					{
						OFFSET	0	71.8	-50.3
						CHANNELS 3  Xrotation Yrotation Zrotation
						JOINT neck_2
						{
							OFFSET	0	86.2	-25.8
							CHANNELS 3  Xrotation Yrotation Zrotation
							JOINT head_ee
							{
								OFFSET	0	179.8	-8.7
								CHANNELS 3  Xrotation Yrotation Zrotation
								End Site
								{
									OFFSET	1	0	0
								}
							}
						}
					}
					JOINT left_clavicle
					{
						OFFSET	-43.2	22.4	-70.8
						CHANNELS 3  Xrotation Yrotation Zrotation
						JOINT left_shoulder
						{
							OFFSET	-93.9	-5.79999	48.7
							CHANNELS 3  Xrotation Yrotation Zrotation
							JOINT left_elbow
							{
								OFFSET	-291.4	-30.8	15.2
								CHANNELS 3  Xrotation Yrotation Zrotation
								JOINT left_lowarm_twist
								{
									OFFSET	-110.7	-3.89999	13.6
									CHANNELS 3  Xrotation Yrotation Zrotation
									JOINT left_hand
									{
										OFFSET	-110.7	-3.89999	13.6
										CHANNELS 3  Xrotation Yrotation Zrotation
										JOINT left_ee
										{
											OFFSET	-80.8	-5.10001	12.1
											CHANNELS 3  Xrotation Yrotation Zrotation
											End Site
											{
												OFFSET	1	0	0
											}
										}
									}
								}
							}
						}
					}
					JOINT right_clavicle
					{
						OFFSET	43.2	22.4	-70.8
						CHANNELS 3  Xrotation Yrotation Zrotation
						JOINT right_shoulder
						{
							OFFSET	93.9	-5.79999	48.7
							CHANNELS 3  Xrotation Yrotation Zrotation
							JOINT right_elbow
							{
								OFFSET	291.4	-30.8	15.2
								CHANNELS 3  Xrotation Yrotation Zrotation
								JOINT right_lowarm_twist
								{
									OFFSET	110.7	-3.89999	13.6
									CHANNELS 3  Xrotation Yrotation Zrotation
									JOINT right_hand
									{
										OFFSET	110.7	-3.89999	13.6
										CHANNELS 3  Xrotation Yrotation Zrotation
										JOINT right_ee
										{
											OFFSET	80.8	-5.10001	12.1
											CHANNELS 3  Xrotation Yrotation Zrotation
											End Site
											{
												OFFSET	1	0	0
											}
										}
									}
								}
							}
						}
					}
				}
			}
		}
	}
	JOINT left_hip
	{
		OFFSET	-82.8	-127.5	0.300001
		CHANNELS 3  Xrotation Yrotation Zrotation
		JOINT left_knee
		{
			OFFSET	-28.2	-396.7	2.2
			CHANNELS 3  Xrotation Yrotation Zrotation
			JOINT left_ankle
			{
				OFFSET	-11.7	-411.3	35.4
				CHANNELS 3  Xrotation Yrotation Zrotation
				JOINT left_toes
				{
					OFFSET	0	-60	-88.6
					CHANNELS 3  Xrotation Yrotation Zrotation
					JOINT left_foot_ee
					{
						OFFSET	-22.5	-16.5	-42.2
						CHANNELS 3  Xrotation Yrotation Zrotation
						End Site
						{
							OFFSET	1	0	0
						}
					}
				}
			}
		}
	}
	JOINT right_hip
	{
		OFFSET	82.8	-127.5	0.300001
		CHANNELS 3  Xrotation Yrotation Zrotation
		JOINT right_knee
		{
			OFFSET	28.2	-396.7	2.2
			CHANNELS 3  Xrotation Yrotation Zrotation
			JOINT right_ankle
			{
				OFFSET	11.7	-411.3	35.4
				CHANNELS 3  Xrotation Yrotation Zrotation
				JOINT right_toes
				{
					OFFSET	0	-60	-88.6
					CHANNELS 3  Xrotation Yrotation Zrotation
					JOINT right_foot_ee
					{
						OFFSET	22.5	-16.5	-42.2
						CHANNELS 3  Xrotation Yrotation Zrotation
						End Site
						{
							OFFSET	1	0	0
						}
					}
				}
			}
		}
	}
}
MOTION
Frames: 12
Frame Time: 0.02
3654.28 639.876 -337.595 7.12792 50.4631 -5.52477 -3.13752 0.448958 0.822507 -3.13723 0.395712 0.849406 -3.13067 0.158173 0.923608 -3.13173 0.302049 0.887041 -9.16697 7.06733 -0.538925 -9.20699 13.6308 1.14706 -0.0 0.0 -0.0 8.95843 -17.1434 17.276 15.4406 -0.537482 59.5195 1.93793 -43.826 0.779617 15.7812 0.283634 -1.9896 5.70969 15.4598 47.6043 -0.0 0.0 -0.0 13.3707 26.82 -26.4349 -20.4081 -5.38132 -65.6166 0.511715 14.2244 -0.0638486 6.78785 -0.189229 0.845908 0.57956 13.3515 1.77515 0.0 0.0 0.0 -17.9346 -23.5413 14.8007 0.526734 -0.0220481 -0.0778235 39.4411 22.7094 -5.0453 2.61462 -0.0 -0.0 -0.0 0.0 -0.0 26.6393 2.47244 -6.61591 -3.71878 -0.135151 -0.554615 9.39819 -18.814 1.36313 -2.00231 0.0 0.0 0.0 0.0 0.0 
3639.59 639.441 -346.002 6.41359 50.5666 -5.05162 -3.07323 0.458498 0.806596 -3.07296 0.406245 0.834135 -3.06638 0.173379 0.911453 -3.0674 0.315145 0.872637 -8.63575 7.1604 -0.358513 -8.66589 13.6541 1.28396 -0.0 0.0 -0.0 9.249 -16.9171 17.9312 15.0797 0.0212705 59.1034 1.90276 -43.3021 0.755374 15.8447 0.28366 -1.99771 5.7209 15.0358 47.6081 -0.0 0.0 -0.0 13.2805 27.396 -26.1527 -20.1686 -5.3635 -65.4117 0.504012 14.0188 -0.0619692 7.21433 -0.197754 0.899721 0.479845 12.6754 2.15597 0.0 0.0 0.0 -17.7263 -23.4738 14.5458 0.185543 -0.00768464 -0.0274361 39.7001 22.2488 -5.05726 2.64771 -0.0 -0.0 -0.0 0.0 -0.0 26.232 2.60583 -6.82784 -4.33868 -0.154163 -0.647852 9.25374 -18.6383 1.34201 -2.09676 0.0 0.0 0.0 0.0 0.0 
3624.05 644.373 -356.231 4.94154 51.2684 -4.07326 -2.95579 0.397802 0.64937 -2.95563 0.355675 0.673366 -2.95102 0.168211 0.742717 -2.95168 0.283395 0.706833 -8.27188 7.2014 -0.309169 -8.29492 13.6767 1.29958 -0.0 0.0 -0.0 9.43617 -16.6794 18.359 14.6414 0.516117 58.7381 1.86831 -42.7801 0.731862 15.9015 0.283677 -2.00497 5.72773 14.7214 47.5945 -0.0 0.0 -0.0 13.3301 27.5944 -26.2414 -19.8719 -5.34869 -65.538 0.498707 13.877 -0.0606905 7.54463 -0.204081 0.941438 0.402324 12.1763 2.46446 0.0 0.0 0.0 -17.5101 -23.3904 14.6234 -0.330602 0.0134718 0.0489456 39.9017 21.921 -5.06744 2.67823 -0.0 -0.0 -0.0 0.0 -0.0 25.6645 2.63002 -7.33746 -5.20354 -0.179 -0.778254 9.10059 -18.4746 1.31973 -2.16276 0.0 0.0 0.0 0.0 0.0 
3610.61 640.937 -362.731 3.62739 52.1928 -3.04302 -2.97151 0.35834 0.549557 -2.9714 0.322645 0.571245 -2.96787 0.1627 0.635568 -2.96834 0.261033 0.601898 -7.99922 7.51782 -0.17389 -8.01866 14.1572 1.47189 -0.0 0.0 -0.0 9.69588 -14.5866 19.0365 12.0422 1.90793 58.0028 1.90399 -43.3206 0.756221 15.3668 0.283237 -1.93667 5.72292 14.3463 47.4494 -0.0 0.0 -0.0 13.04 26.5502 -25.7037 -20.2437 -5.57846 -65.5873 0.489923 13.6417 -0.0586011 7.65164 -0.206079 0.954962 0.321947 11.8585 2.87056 0.0 0.0 0.0 -17.2358 -23.3554 14.7995 -0.825656 0.0331155 0.122379 39.6964 20.8638 -5.02102 2.4374 -0.0 -0.0 -0.0 0.0 -0.0 25.2535 2.63048 -7.73136 -6.36507 -0.209251 -0.953938 8.29667 -18.3588 1.20572 -2.25733 0.0 0.0 0.0 0.0 0.0 
3590.62 646.613 -370.38 3.91393 52.5524 -3.65228 -2.98702 0.365241 0.455263 -2.98696 0.335532 0.477581 -2.98395 0.199387 0.548552 -2.98425 0.283517 0.51018 -7.71786 7.72192 -0.0855099 -7.73216 14.458 1.57023 -0.0 0.0 -0.0 9.87211 -13.1105 19.4813 10.1986 2.91161 57.5255 1.91706 -43.5162 0.765204 15.0158 0.282602 -1.89184 5.71951 14.0854 47.3464 -0.0 0.0 -0.0 12.9142 26.0165 -25.4771 -20.4461 -5.71533 -65.6295 0.483915 13.4806 -0.0571925 7.73891 -0.20769 0.965994 0.263791 11.6073 3.15563 0.0 0.0 0.0 -17.1798 -23.3105 14.7962 -2.0155 0.077724 0.29953 39.5566 20.1615 -4.99107 2.25347 -0.0 -0.0 -0.0 0.0 -0.0 25.3863 2.72355 -7.416 -7.219 -0.229215 -1.08346 7.56196 -18.2862 1.10115 -2.36707 0.0 0.0 0.0 0.0 0.0 
3576.93 642.639 -380.918 3.96123 52.7893 -3.45756 -2.97173 0.316845 0.394783 -2.97169 0.291082 0.414144 -2.96942 0.173135 0.475676 -2.96965 0.246085 0.442364 -7.44024 7.8634 -0.0362235 -7.44873 14.6683 1.61561 -0.0 0.0 -0.0 10.4577 -12.9653 20.7831 8.7628 3.53153 57.6487 1.91889 -43.5435 0.766463 14.5821 0.281438 -1.83646 5.63061 13.7649 46.4018 -0.0 0.0 -0.0 13.1718 26.2675 -26.0426 -20.1441 -5.89671 -64.8538 0.468701 13.0716 -0.0536986 7.79993 -0.208806 0.973708 0.20178 11.0962 3.35588 0.0 0.0 0.0 -16.7743 -23.0337 15.2613 -3.07028 0.114182 0.4573 39.4577 19.6652 -4.97046 2.07324 -0.0 -0.0 -0.0 0.0 -0.0 25.0683 3.30972 -7.75846 -9.37053 -0.270934 -1.41096 6.94951 -17.4725 1.01133 -2.33427 0.0 0.0 0.0 0.0 0.0 
3563.67 637.744 -390.81 4.82946 52.1563 -3.82018 -3.04493 0.442216 0.177111 -3.04502 0.43005 0.204892 -3.04349 0.36142 0.310323 -3.0434 0.405893 0.249349 -7.21557 7.88573 -0.471498 -7.2169 15.0062 1.15868 -0.0 0.0 -0.0 10.3545 -12.6253 20.5632 6.91142 3.72448 57.3264 1.80412 -41.7836 0.68868 14.2834 0.280393 -1.79833 5.56931 13.5297 45.7548 -0.0 0.0 -0.0 13.4144 27.1741 -26.491 -19.6704 -6.59215 -64.5161 0.457234 12.7624 -0.0511352 7.87401 -0.210151 0.983076 0.0789607 10.3124 3.8512 0.0 0.0 0.0 -17.0175 -22.6016 14.5007 -5.55639 0.188566 0.83156 39.4263 19.7718 -4.96993 1.94847 -0.0 -0.0 -0.0 0.0 -0.0 24.8565 3.5338 -7.5125 -10.8899 -0.292971 -1.64305 4.71303 -16.0094 0.687604 -2.61044 0.0 0.0 0.0 0.0 0.0 
3531.88 649.896 -404.637 6.05753 53.005 -4.6595 -3.10536 0.484283 -0.0285073 -3.10549 0.485115 0.00236734 -3.10563 0.467438 0.129788 -3.10532 0.482069 0.0543341 -7.83637 7.6203 -0.544838 -7.85149 14.6008 1.10702 -0.0 0.0 -0.0 10.3342 -12.3733 20.5246 3.46042 4.22232 59.3115 1.65072 -39.2704 0.588974 13.0849 0.274199 -1.64537 5.49725 12.932 44.9111 -0.0 0.0 -0.0 13.2023 26.4652 -26.0891 -18.7882 -7.31899 -62.4255 0.449518 12.5539 -0.0494444 7.90057 -0.210629 0.986435 0.0385313 9.36823 3.72143 0.0 0.0 0.0 -15.6455 -21.8028 15.7781 -9.0747 0.265928 1.36584 38.3921 18.3129 -4.8418 1.53702 -0.0 -0.0 -0.0 0.0 -0.0 23.387 3.80277 -7.25218 -14.4301 -0.320396 -2.18546 2.85253 -14.3173 0.416749 -2.23428 0.0 0.0 0.0 0.0 0.0 
3500.16 657.673 -411.177 5.79722 52.9381 -4.90629 -3.13962 0.331899 -0.150557 -3.13967 0.340806 -0.129132 -3.14054 0.362785 -0.0347937 -3.14037 0.352737 -0.0916529 -7.95395 7.599 -1.85735 -7.96119 15.493 -0.184636 -0.0 0.0 -0.0 11.024 -11.0079 22.0826 0.484059 5.18948 60.7871 1.42355 -35.1889 0.451445 11.7514 0.263549 -1.47539 5.20688 10.2213 41.4555 -0.0 0.0 -0.0 13.2463 26.2308 -26.2194 -17.7182 -7.58562 -60.8875 0.426617 11.9332 -0.0445879 7.48259 -0.202911 0.933601 -0.156312 8.45453 4.65007 0.0 0.0 0.0 -15.006 -19.8398 16.5681 -15.2969 0.321999 2.31844 39.973 17.6658 -4.97617 1.86918 -0.0 -0.0 -0.0 0.0 -0.0 21.4184 4.61596 -5.3789 -16.9147 -0.319611 -2.56664 0.166698 -9.49388 0.0243896 -1.79784 0.0 0.0 0.0 0.0 0.0 
3479.12 660.838 -418.005 7.56137 52.7442 -7.62627 -3.20699 0.269435 0.246785 -3.20699 0.253185 0.26343 -3.20576 0.174487 0.321017 -3.20584 0.222996 0.289432 -8.45288 7.38825 -2.0234 -8.47025 15.2321 -0.328854 -0.0 0.0 -0.0 11.4069 -10.0763 22.9433 -1.27437 6.09339 60.665 1.22415 -31.2317 0.342165 10.7952 0.253477 -1.35366 4.91126 8.28803 38.2619 -0.0 0.0 -0.0 13.1944 26.0333 -26.1228 -17.1174 -7.88461 -59.8978 0.387726 10.8725 -0.0368986 7.27313 -0.198898 0.907144 -0.300144 7.26078 5.11373 0.0 0.0 0.0 -14.3692 -17.3733 17.1494 -19.6221 0.299943 2.98154 40.8993 18.0301 -5.06706 1.28772 -0.0 -0.0 -0.0 0.0 -0.0 20.056 5.57765 -4.28438 -18.6805 -0.309006 -2.83735 -2.68424 -3.45541 -0.396728 -2.12045 0.0 0.0 0.0 0.0 0.0 
3464.65 650.094 -428.726 7.8636 52.2917 -8.40653 -2.98207 0.295354 0.262197 -2.98208 0.278071 0.28046 -2.98064 0.195333 0.343258 -2.98072 0.247092 0.308101 -8.78299 6.84855 -0.479889 -8.81309 13.1615 1.10883 -0.0 0.0 -0.0 11.4262 -10.8174 22.9833 -1.33107 7.84514 60.5452 1.08276 -28.2068 0.272045 11.2019 0.25801 -1.40542 4.30486 7.01699 32.8824 -0.0 0.0 -0.0 13.4866 26.5854 -26.7332 -11.4757 -6.71804 -58.249 0.217534 6.1506 -0.0116872 7.23344 -0.198126 0.902133 -0.929313 1.9956 7.09549 0.0 0.0 0.0 -12.7284 -13.3037 16.6808 -26.7095 0.155969 4.05892 41.8068 18.1177 -5.14916 2.58255 -0.0 -0.0 -0.0 0.0 -0.0 19.4355 6.15812 -3.66814 -19.2985 -0.303325 -2.932 -1.80264 3.0188 -0.270319 -4.38679 0.0 0.0 0.0 0.0 0.0 
3454.97 655.657 -443.582 8.85785 52.5373 -9.44483 -3.05595 0.346028 0.320924 -3.05595 0.324906 0.342292 -3.0539 0.223898 0.415447 -3.05403 0.2867 0.374874 -9.04771 6.85645 1.27144 -9.07567 11.9817 2.85752 -0.0 0.0 -0.0 10.9287 -11.0194 21.8701 -2.40487 9.20082 60.9387 0.972218 -25.7154 0.221917 11.8486 0.264459 -1.48777 3.6263 4.45034 26.7695 -0.0 0.0 -0.0 13.3031 26.2941 -26.3434 -7.21169 -6.29751 -57.2414 0.20279 5.73661 -0.0101604 7.42454 -0.201808 0.926267 -1.52098 -3.52155 8.60085 0.0 0.0 0.0 -9.86665 -10.2311 14.8373 -34.1429 -0.136779 5.16129 41.366 19.6921 -5.14549 3.47079 -0.0 -0.0 -0.0 0.0 -0.0 18.3054 6.51043 -3.5497 -20.9892 -0.282569 -3.19057 2.07595 8.30241 0.315421 -5.33586 0.0 0.0 0.0 0.0 0.0 
